{"title":"Star Wars - The Last Turn to the Dark Side - Episodes 1-3 recut-","uid":11612559,"size":1717706434,"categoryP":"video","categoryS":"movies","magnet":"?xt=urn:btih:91b0091f890b33de6e379ea841153d03ab46fd57&amp;dn=Star+Wars+-+The+Last+Turn+to+the+Dark+Side+-+Episodes+1-3+recut-&amp;tr=udp%3A%2F%2Ftracker.openbittorrent.com%3A80&amp;tr=udp%3A%2F%2Fopen.demonii.com%3A1337&amp;tr=udp%3A%2F%2Ftracker.coppersurfer.tk%3A6969&amp;tr=udp%3A%2F%2Fexodus.desync.com%3A6969","seeders":54,"leechers":0,"uploader":"Zantedit","files":1,"time":1417474631,"description":"At the behest of a few online communities, I took it upon myself to combine two of the most reputable fan-trilogy edits into a single cohesive piece. For reference, the two torrents are located at: \n &lt;a href=&quot;\nhttps://thepiratebay.se/torrent/10132205/Star_Wars_-_A_Last_Hope_-_Episodes_1-3_recut__improved&quot; rel=&quot;nofollow&quot; target=&quot;_NEW&quot;&gt;\nhttps://thepiratebay.se/torrent/10132205/Star_Wars_-_A_Last_Hope_-_Episodes_1-3_recut__improved&lt;/a&gt;\n &lt;a href=&quot;\nhttps://thepiratebay.se/torrent/10123363/Star_Wars_-_Turn_to_the_Dark_Side&quot; rel=&quot;nofollow&quot; target=&quot;_NEW&quot;&gt;\nhttps://thepiratebay.se/torrent/10123363/Star_Wars_-_Turn_to_the_Dark_Side&lt;/a&gt;\n\n\n\nThe cut starts with the beginning of 'A Last Hope' and goes to 01:15:03:11, where I cut and jump to 'Turn to the Dark Side' at 01:19:59:20.\n\nTotal Runtime: 162 Minutes\n\nAll editing credit goes to whoever GoodFilms sources were.\n\nFor encoding information, I went with roughly the same settings as the first source, as it was at a higher bitrate+larger resolution than Turn to the Dark Side. Turn to the Dark Side was also rendered in 29.967 rather than the standard 23.98, so I corrected that as well and upscaled it to match 'A Last Hope's resolution.\n\nFULL ENCODING INFORMATION:\n\nGeneral \nComplete name : Star Wars - The Last Turn to the Dark Side.mp4 \nFormat : MPEG-4 \nFormat profile : Base Media / Version 2 \nCodec ID : mp42 \nFile size : 1.60 GiB \nDuration : 2h 42mn \nOverall bit rate mode : Variable \nOverall bit rate : 1 408 Kbps \nEncoded date : UTC 2014-12-01 21:35:06 \nTagged date : UTC 2014-12-01 21:35:26 \nÂ©TIM : 00:00:00:00 \nÂ©TSC : 24000 \nÂ©TSZ : 1001 \n\nVideo \nID : 1 \nFormat : AVC \nFormat/Info : Advanced Video Codec \nFormat profile : &lt;a class=&quot;__cf_email__&quot; href=&quot;/cdn-cgi/l/email-protection&quot; data-cfemail=&quot;430e222a2d030f706d72&quot;&gt;[email&amp;#160;protected]&lt;/a&gt;&lt;script cf-hash='f9e31' type=&quot;text/javascript&quot;&gt;\n/* &lt;![CDATA[ */!function(){try{var t=&quot;currentScript&quot;in document?document.currentScript:function(){for(var t=document.getElementsByTagName(&quot;script&quot;),e=t.length;e--;)if(t[e].getAttribute(&quot;cf-hash&quot;))return t[e]}();if(t&amp;&amp;t.previousSibling){var e,r,n,i,c=t.previousSibling,a=c.getAttribute(&quot;data-cfemail&quot;);if(a){for(e=&quot;&quot;,r=parseInt(a.substr(0,2),16),n=2;a.length-n;n+=2)i=parseInt(a.substr(n,2),16)^r,e+=String.fromCharCode(i);e=document.createTextNode(e),c.parentNode.replaceChild(e,c)}}}catch(u){}}();/* ]]&gt; */&lt;/script&gt; \nFormat settings, CABAC : Yes \nFormat settings, ReFrames : 3 frames \nCodec ID : avc1 \nCodec ID/Info : Advanced Video Coding \nDuration : 2h 42mn \nSource duration : 2h 42mn \nBit rate mode : Constant \nBit rate : 1 100 Kbps \nWidth : 960 pixels \nHeight : 540 pixels \nDisplay aspect ratio : 16:9 \nFrame rate mode : Constant \nFrame rate : 23.976 fps \nStandard : NTSC \nColor space : YUV \nChroma subsampling : 4:2:0 \nBit depth : 8 bits \nScan type : Progressive \nBits/(Pixel*Frame) : 0.088 \nStream size : 1.23 GiB (77%) \nSource stream size : 1.23 GiB (77%) \nLanguage : English \nEncoded date : UTC 2014-12-01 21:35:07 \nTagged date : UTC 2014-12-01 21:35:07 \nColor range : Limited \n\nAudio \nID : 2 \nFormat : AAC \nFormat/Info : Advanced Audio Codec \nFormat profile : LC \nCodec ID : 40 \nDuration : 2h 42mn \nSource duration : 2h 42mn \nBit rate mode : Variable \nBit rate : 317 Kbps \nMaximum bit rate : 413 Kbps \nChannel(s) : 2 channels \nChannel positions : Front: L R \nSampling rate : 48.0 KHz \nCompression mode : Lossy \nStream size : 369 MiB (23%) \nSource stream size : 369 MiB (23%) \nLanguage : English \nEncoded date : UTC 2014-12-01 21:35:07 \nTagged date : UTC 2014-12-01 21:35:07","torrent":{"xt":"urn:btih:91b0091f890b33de6e379ea841153d03ab46fd57","amp;dn":"Star+Wars+-+The+Last+Turn+to+the+Dark+Side+-+Episodes+1-3+recut-","amp;tr":["udp%3A%2F%2Ftracker.openbittorrent.com%3A80","udp%3A%2F%2Fopen.demonii.com%3A1337","udp%3A%2F%2Ftracker.coppersurfer.tk%3A6969","udp%3A%2F%2Fexodus.desync.com%3A6969"],"infoHash":"91b0091f890b33de6e379ea841153d03ab46fd57","infoHashBuffer":{"type":"Buffer","data":[145,176,9,31,137,11,51,222,110,55,158,168,65,21,61,3,171,70,253,87]},"announce":[],"urlList":[]}}